<svg width="60" height="60" viewBox="0 0 60 60" fill="none" xmlns="http://www.w3.org/2000/svg">
<path d="M16.8527 15.4071V16.9071H18.0686L18.3202 15.7175L16.8527 15.4071ZM40.6742 14.1L39.3003 14.702L39.6938 15.6H40.6742V14.1ZM5.03655 26.9041L6.52419 27.0964L6.54133 26.9637L6.53472 26.83L5.03655 26.9041ZM55 27.0274L56.4995 27.0673L56.5 27.0474V27.0274H55ZM14.375 32.7195C15.2034 32.7195 15.875 32.0479 15.875 31.2195C15.875 30.3911 15.2034 29.7195 14.375 29.7195V32.7195ZM18.3202 15.7175C19.0794 12.1288 20.7001 9.86668 22.6028 8.48444C24.5284 7.08548 26.8658 6.5 29.1706 6.5V3.5C26.3796 3.5 23.3852 4.20786 20.8395 6.05734C18.2707 7.92353 16.2804 10.8649 15.3852 15.0966L18.3202 15.7175ZM29.1706 6.5C31.143 6.5 32.9851 7.05385 34.6594 8.30804C36.3503 9.57459 37.9473 11.6146 39.3003 14.702L42.0481 13.4979C40.5468 10.072 38.6676 7.56208 36.458 5.90696C34.2319 4.23949 31.7494 3.5 29.1706 3.5V6.5ZM3.54892 26.7119C3.42949 27.6362 3.4916 29.057 4.17152 30.3146C4.91868 31.6966 6.33503 32.7195 8.49385 32.7195V29.7195C7.44072 29.7195 7.0355 29.304 6.81052 28.8879C6.51831 28.3474 6.45775 27.6105 6.52419 27.0964L3.54892 26.7119ZM53.5005 26.9876C53.4866 27.5112 53.3353 28.2946 52.9871 28.8929C52.6749 29.4293 52.284 29.7195 51.6543 29.7195V32.7195C53.6119 32.7195 54.8753 31.6124 55.5798 30.4021C56.2483 29.2536 56.4762 27.9411 56.4995 27.0673L53.5005 26.9876ZM6.53472 26.83C6.45281 25.1741 6.87669 22.6589 8.37184 20.5998C9.80895 18.6207 12.3441 16.9071 16.8527 16.9071V13.9071C11.4534 13.9071 7.98571 16.0258 5.94432 18.8371C3.96097 21.5685 3.43073 24.8018 3.53839 26.9783L6.53472 26.83ZM40.6742 15.6C43.4251 15.6 46.6426 15.8655 49.1503 17.3802C51.5103 18.8057 53.5 21.5014 53.5 27.0274H56.5C56.5 20.6403 54.1118 16.8723 50.7014 14.8123C47.4388 12.8416 43.4933 12.6 40.6742 12.6V15.6ZM8.49385 32.7195H14.375V29.7195H8.49385V32.7195ZM45.7731 32.7195H51.6543V29.7195H45.7731V32.7195Z" fill="#46C7D9"/>
<path d="M30.5 20V54M30.5 54L17 40.4M30.5 54L44 40.4" stroke="#46C7D9" stroke-width="3" stroke-linecap="round" stroke-linejoin="round"/>
</svg>
