<svg width="50" height="50" viewBox="0 0 50 50" fill="none" xmlns="http://www.w3.org/2000/svg">
<path d="M15.2501 19.4386C17.1363 22.7798 22.5255 27.4252 31.8702 20.2793C37.7005 15.8209 43.4064 17.9068 45.0194 22.0254C42.4216 8.99443 28.4751 11.1285 24.7889 14.8147C21.84 17.7636 18.7423 19.0504 15.2501 19.4386Z" fill="url(#paint0_linear)"/>
<path d="M28.0547 36.1233C38.7899 39.6802 43.8987 31.5641 45.0194 26.9726C42.786 32.6635 35.33 31.2773 31.8702 28.7833C24.5496 23.5063 17.7399 26.175 15.2501 28.169C17.423 28.169 20.1307 30.7656 23.0122 33.0515C24.6587 34.3577 26.362 35.5625 28.0547 36.1233Z" fill="url(#paint1_linear)"/>
<path d="M36.3971 24.3535C36.4747 28.3111 33.4115 28.9557 31.8702 28.7833C35.33 31.2773 42.786 32.6635 45.0194 26.9726C45.493 25.0325 45.3487 22.8661 45.0194 22.0254C43.4064 17.9068 37.7005 15.8209 31.8702 20.2793C33.3468 19.9883 36.3195 20.3958 36.3971 24.3535Z" fill="url(#paint2_linear)"/>
<path d="M23.0122 33.0515C20.1307 30.7656 17.423 28.169 15.2501 28.169C13.1807 29.9258 8.23348 33.3361 5 32.9222C8.0718 35.7784 15.9503 39.9065 23.0122 33.0515Z" fill="url(#paint3_linear)"/>
<defs>
<linearGradient id="paint0_linear" x1="25.1614" y1="12" x2="49.428" y2="36.0247" gradientUnits="userSpaceOnUse">
<stop stop-color="#43A4BA"/>
<stop offset="1" stop-color="#4EC5E0"/>
</linearGradient>
<linearGradient id="paint1_linear" x1="25.1614" y1="12" x2="49.428" y2="36.0247" gradientUnits="userSpaceOnUse">
<stop stop-color="#43A4BA"/>
<stop offset="1" stop-color="#4EC5E0"/>
</linearGradient>
<linearGradient id="paint2_linear" x1="45.3538" y1="12" x2="-7.25488" y2="48.4736" gradientUnits="userSpaceOnUse">
<stop stop-color="#217183"/>
<stop offset="1" stop-color="#47BED9"/>
</linearGradient>
<linearGradient id="paint3_linear" x1="45.3538" y1="12" x2="-7.25488" y2="48.4736" gradientUnits="userSpaceOnUse">
<stop stop-color="#217183"/>
<stop offset="1" stop-color="#47BED9"/>
</linearGradient>
</defs>
</svg>
